<?xml version="1.0" encoding="UTF-8" standalone="no"?>
<svg
   width="16"
   height="16"
   viewBox="0 0 16 16"
   version="1.1"
   id="svg1"
   sodipodi:docname="booth.svg"
   inkscape:version="1.4 (86a8ad7, 2024-10-11)"
   xmlns:inkscape="http://www.inkscape.org/namespaces/inkscape"
   xmlns:sodipodi="http://sodipodi.sourceforge.net/DTD/sodipodi-0.dtd"
   xmlns="http://www.w3.org/2000/svg"
   xmlns:svg="http://www.w3.org/2000/svg">
  <sodipodi:namedview
     id="namedview1"
     pagecolor="#ffffff"
     bordercolor="#000000"
     borderopacity="0.25"
     inkscape:showpageshadow="2"
     inkscape:pageopacity="0.0"
     inkscape:pagecheckerboard="0"
     inkscape:deskcolor="#d1d1d1"
     inkscape:zoom="18.5625"
     inkscape:cx="8.6195286"
     inkscape:cy="10.020202"
     inkscape:window-width="1440"
     inkscape:window-height="838"
     inkscape:window-x="-6"
     inkscape:window-y="-6"
     inkscape:window-maximized="1"
     inkscape:current-layer="g1" />
  <!-- Generator: Sketch 3.6.1 (26313) - http://www.bohemiancoding.com/sketch -->
  <title
     id="title1">booth_logo</title>
  <desc
     id="desc1">Created with Sketch.</desc>
  <defs
     id="defs1" />
  <g
     id="g1">
    <path
       id="rect1"
       style="baseline-shift:baseline;display:inline;overflow:visible;vector-effect:none;fill:#fc4d50;stroke-linecap:round;stroke-linejoin:round;stroke-dasharray:5.83085, 11.6617;enable-background:accumulate;stop-color:#000000;stop-opacity:1"
       inkscape:label="Back"
       d="M 2.7205386,0 H 13.279461 C 14.78664,0 16,1.2133602 16,2.7205386 V 13.279461 C 16,14.78664 14.78664,16 13.279461,16 H 2.7205386 C 1.2133602,16 0,14.78664 0,13.279461 V 2.7205386 C 0,1.2133602 1.2133602,0 2.7205386,0 Z" />
    <path
       d="M 12.235997,6.8095 V 6.0125 L 10.244998,2.8265 H 9.5579979 l -1.087,2.607 -1.068,-2.245 -0.598,-10e-4 -1.81,4.273 v -4.055 h -1.231 v 0.359 h -0.941 v 1.249 h 0.941 v 3.606 c 0,0.32 0.26,0.579 0.58,0.579 h 0.615 v 3.975 h 1.256 v -1.8 c 0,-0.997 0.863,-1.806 1.93,-1.812 h 0.012 10e-4 10e-4 c 1.745999,10e-4 3.1600001,1.321 3.1600001,2.949 v 0.663 h 0.916999 v -3.566 h 0.941 v -1.971 z"
       id="Combined-Shape"
       fill="#ffffff" />
  </g>
</svg>
