<?xml version="1.0" encoding="UTF-8" standalone="no"?>
<!-- Uploaded to: SVG Repo, www.svgrepo.com, Generator: SVG Repo Mixer Tools -->

<svg
   fill="#000000"
   width="549.97498"
   height="550"
   viewBox="0 0 21.998999 22"
   version="1.1"
   id="svg2"
   sodipodi:docname="instagram.svg"
   inkscape:version="1.4 (86a8ad7, 2024-10-11)"
   xmlns:inkscape="http://www.inkscape.org/namespaces/inkscape"
   xmlns:sodipodi="http://sodipodi.sourceforge.net/DTD/sodipodi-0.dtd"
   xmlns="http://www.w3.org/2000/svg"
   xmlns:svg="http://www.w3.org/2000/svg">
  <sodipodi:namedview
     id="namedview1"
     pagecolor="#ffffff"
     bordercolor="#000000"
     borderopacity="0.25"
     inkscape:showpageshadow="2"
     inkscape:pageopacity="0.0"
     inkscape:pagecheckerboard="0"
     inkscape:deskcolor="#d1d1d1"
     inkscape:zoom="0.54"
     inkscape:cx="642.59259"
     inkscape:cy="403.7037"
     inkscape:window-width="1440"
     inkscape:window-height="838"
     inkscape:window-x="-6"
     inkscape:window-y="-6"
     inkscape:window-maximized="1"
     inkscape:current-layer="svg2" />
  <defs
     id="defs2" />
  <path
     id="rect1"
     style="fill:#ffffff;stroke-width:0.0731229;stroke-linecap:round;stroke-linejoin:round;stroke-dasharray:0.0731229, 0.146246"
     d="M 2.1312239,1.9527997 H 19.867774 c 0.134512,0 0.242801,2.4033581 0.242801,5.3886952 v 7.3170101 c 0,2.985337 -0.108289,5.388695 -0.242801,5.388695 H 2.1312239 c -0.1345119,0 -0.2428012,-2.403358 -0.2428012,-5.388695 V 7.3414949 c 0,-2.9853371 0.1082893,-5.3886952 0.2428012,-5.3886952 z" />
  <path
     d="M 15.445,0 H 6.554 A 6.559,6.559 0 0 0 0,6.554 v 8.891 A 6.559,6.559 0 0 0 6.554,22 h 8.891 a 6.56,6.56 0 0 0 6.554,-6.555 V 6.554 A 6.557,6.557 0 0 0 15.445,0 Z m 4.342,15.445 a 4.343,4.343 0 0 1 -4.342,4.342 H 6.554 A 4.341,4.341 0 0 1 2.213,15.445 V 6.554 A 4.34,4.34 0 0 1 6.554,2.213 h 8.891 a 4.342,4.342 0 0 1 4.341,4.341 z"
     id="path1" />
  <path
     d="m 11,5.312 c -3.138,0 -5.688,2.551 -5.688,5.688 0,3.137 2.551,5.688 5.688,5.688 3.137,0 5.688,-2.551 5.688,-5.688 0,-3.137 -2.55,-5.688 -5.688,-5.688 z m 0,9.163 A 3.475,3.475 0 1 1 10.999,7.525 3.475,3.475 0 0 1 11,14.475 Z M 16.7,3.991 a 1.363,1.363 0 1 1 -1.364,1.364 c 0,-0.752 0.51,-1.364 1.364,-1.364 z"
     id="path2" />
</svg>
