<?xml version="1.0" encoding="UTF-8" standalone="no"?>
<svg
   fill="none"
   viewBox="0 0 22 22"
   id="Niconico-Logo-2--Streamline-Logos-Block"
   height="22"
   width="22"
   version="1.1"
   sodipodi:docname="niconico.svg"
   inkscape:version="1.4 (86a8ad7, 2024-10-11)"
   xmlns:inkscape="http://www.inkscape.org/namespaces/inkscape"
   xmlns:sodipodi="http://sodipodi.sourceforge.net/DTD/sodipodi-0.dtd"
   xmlns="http://www.w3.org/2000/svg"
   xmlns:svg="http://www.w3.org/2000/svg">
  <sodipodi:namedview
     id="namedview1"
     pagecolor="#ffffff"
     bordercolor="#000000"
     borderopacity="0.25"
     inkscape:showpageshadow="2"
     inkscape:pageopacity="0.0"
     inkscape:pagecheckerboard="0"
     inkscape:deskcolor="#d1d1d1"
     inkscape:zoom="27"
     inkscape:cx="11"
     inkscape:cy="11"
     inkscape:window-width="1440"
     inkscape:window-height="838"
     inkscape:window-x="-6"
     inkscape:window-y="-6"
     inkscape:window-maximized="1"
     inkscape:current-layer="Niconico-Logo-2--Streamline-Logos-Block" />
  <defs
     id="defs1" />
  <desc
     id="desc1">
    Niconico Logo 2 Streamline Icon: https://streamlinehq.com
  </desc>
  <path
     id="rect1"
     style="fill:#ffffff;stroke-width:2.13088;stroke-linecap:round;stroke-linejoin:round;stroke-dasharray:2.13088, 4.26175"
     d="m 2.5,2.5 h 17 v 17 h -17 z" />
  <path
     fill="#000000"
     fill-rule="evenodd"
     d="M 4,0 A 4,4 0 0 0 0,4 v 14 a 4,4 0 0 0 4,4 h 14 a 4,4 0 0 0 4,-4 V 4 A 4,4 0 0 0 18,0 Z m 3.06,3.845 a 0.75,0.75 0 0 1 1.061,0 l 2.727,2.727 a 0.751,0.751 0 0 1 0.138,0.19 h 0.027 a 0.751,0.751 0 0 1 0.139,-0.19 l 2.727,-2.727 a 0.75,0.75 0 1 1 1.06,1.06 l -1.856,1.857 h 5.076 A 0.34,0.34 0 0 1 18.5,7.102 V 17.33 a 0.34,0.34 0 0 1 -0.34,0.34 h -3 l -0.56,0.699 a 0.682,0.682 0 0 1 -1.064,0 L 12.977,17.671 H 9.023 l -0.559,0.698 a 0.682,0.682 0 0 1 -1.065,0 L 6.841,17.671 h -3 A 0.34,0.34 0 0 1 3.5,17.33 V 7.102 A 0.34,0.34 0 0 1 3.84,6.762 H 8.917 L 7.06,4.906 a 0.75,0.75 0 0 1 0,-1.061 z M 5.545,9.148 a 0.34,0.34 0 0 1 0.341,-0.34 h 10.228 a 0.34,0.34 0 0 1 0.34,0.34 v 6.136 a 0.34,0.34 0 0 1 -0.34,0.341 H 5.886 a 0.34,0.34 0 0 1 -0.34,-0.34 V 9.148 Z m 8.523,2.386 a 0.682,0.682 0 1 1 0,-1.363 0.682,0.682 0 0 1 0,1.363 z m -7.159,0.341 a 0.682,0.682 0 1 0 1.364,0 0.682,0.682 0 0 0 -1.364,0 z m 3.85,1.123 a 0.34,0.34 0 0 1 0.482,0 l 1.023,1.023 a 0.34,0.34 0 0 1 -0.241,0.581 H 9.977 A 0.341,0.341 0 0 1 9.737,14.02 Z"
     clip-rule="evenodd"
     stroke-width="1"
     id="path1" />
</svg>
