<?xml version="1.0" encoding="UTF-8" standalone="no"?>
<!-- Created with Inkscape (http://www.inkscape.org/) -->

<svg
   width="20mm"
   height="20mm"
   viewBox="0 0 20 20"
   version="1.1"
   id="svg1"
   xml:space="preserve"
   sodipodi:docname="pixiv.svg"
   inkscape:export-filename="rect1.png"
   inkscape:export-xdpi="96"
   inkscape:export-ydpi="96"
   inkscape:version="1.4 (86a8ad7, 2024-10-11)"
   xmlns:inkscape="http://www.inkscape.org/namespaces/inkscape"
   xmlns:sodipodi="http://sodipodi.sourceforge.net/DTD/sodipodi-0.dtd"
   xmlns="http://www.w3.org/2000/svg"
   xmlns:svg="http://www.w3.org/2000/svg"><sodipodi:namedview
     id="namedview1"
     pagecolor="#ffffff"
     bordercolor="#000000"
     borderopacity="0.25"
     inkscape:showpageshadow="2"
     inkscape:pageopacity="0.0"
     inkscape:pagecheckerboard="0"
     inkscape:deskcolor="#d1d1d1"
     inkscape:document-units="mm"
     inkscape:zoom="7.8581248"
     inkscape:cx="37.731648"
     inkscape:cy="37.795277"
     inkscape:window-width="1440"
     inkscape:window-height="838"
     inkscape:window-x="-6"
     inkscape:window-y="-6"
     inkscape:window-maximized="1"
     inkscape:current-layer="svg1"><inkscape:page
       x="0"
       y="0"
       width="20"
       height="20"
       id="page1"
       margin="0"
       bleed="0" /></sodipodi:namedview><defs
     id="defs1" /><path
     id="rect1"
     style="fill:#ffffff;stroke-width:0.586476;stroke-linecap:round;stroke-linejoin:round;stroke-dasharray:0.586476, 1.17296"
     d="M 2.49313,2.4946649 H 17.506868 V 17.505344 H 2.49313 Z" /><path
     style="fill:#0096f9;fill-opacity:1;stroke-width:1.00082"
     d="M 3.431728,19.939236 C 1.7524595,19.639002 0.4549743,18.382628 0.07782821,16.691605 c -0.10377095,-0.465281 -0.10377095,-12.9220035 0,-13.3872846 C 0.44354785,1.6645338 1.6648744,0.44345549 3.3049971,0.07781536 c 0.4653768,-0.10375381 12.9246329,-0.10375381 13.3900089,0 1.640121,0.36564013 2.861448,1.58671844 3.227163,3.22650504 0.103775,0.4652811 0.103775,12.9220036 0,13.3872846 -0.362062,1.623375 -1.537617,2.812761 -3.186486,3.223964 -0.386043,0.09627 -12.7745806,0.118304 -13.303955,0.02362 z m 4.2311335,-3.951692 c 0.086579,-0.08656 0.089282,-0.11272 0.1007622,-0.980437 0.011811,-0.891475 0.011811,-0.891475 0.3323341,-0.725957 C 11.517919,16.048077 15.57334,13.554563 15.570707,9.6852401 15.567707,5.5428831 10.903947,3.0917892 7.5172583,5.452809 7.2435679,5.6436147 7.2435679,5.6436147 6.9026759,5.1230444 6.5006881,4.5092077 6.5098365,4.5146215 5.9054335,4.532144 5.2056932,4.5524584 5.2902606,3.7784678 5.2792405,10.262901 c -0.010109,5.938175 -0.018417,5.67834 0.1861303,5.783935 0.1948183,0.100562 2.0887012,0.04944 2.1974907,-0.05924 z m 2.4739835,-3.62688 c -0.04304,-0.01001 -0.17497,-0.03733 -0.2932382,-0.06084 C 7.457934,11.824823 7.025108,8.4220514 9.2111881,7.327923 c 2.4739839,-1.2382309 4.9753229,1.5709977 3.4409989,3.86454 -0.528974,0.790702 -1.731495,1.34921 -2.515342,1.168231 z"
     id="path1"
     inkscape:label="path1" /></svg>
