<?xml version="1.0" encoding="UTF-8" standalone="no"?>
<svg
   viewBox="0 0 512 512"
   version="1.1"
   id="svg1"
   width="512"
   height="512"
   sodipodi:docname="soundcloud.svg"
   inkscape:version="1.4 (86a8ad7, 2024-10-11)"
   xmlns:inkscape="http://www.inkscape.org/namespaces/inkscape"
   xmlns:sodipodi="http://sodipodi.sourceforge.net/DTD/sodipodi-0.dtd"
   xmlns="http://www.w3.org/2000/svg"
   xmlns:svg="http://www.w3.org/2000/svg">
  <sodipodi:namedview
     id="namedview1"
     pagecolor="#ffffff"
     bordercolor="#000000"
     borderopacity="0.25"
     inkscape:showpageshadow="2"
     inkscape:pageopacity="0.0"
     inkscape:pagecheckerboard="0"
     inkscape:deskcolor="#d1d1d1"
     inkscape:zoom="1.1601562"
     inkscape:cx="256.43098"
     inkscape:cy="256"
     inkscape:window-width="1440"
     inkscape:window-height="838"
     inkscape:window-x="-6"
     inkscape:window-y="-6"
     inkscape:window-maximized="1"
     inkscape:current-layer="svg1" />
  <defs
     id="defs1" />
  <path
     id="rect1"
     style="fill:#ff5500"
     d="M 76.800003,0 H 435.2 C 477.7472,0 512,34.252801 512,76.800003 V 435.2 c 0,42.5472 -34.2528,76.8 -76.8,76.8 H 76.800003 C 34.252801,512 0,477.7472 0,435.2 V 76.800003 C 0,34.252801 34.252801,0 76.800003,0 Z" />
  <path
     d="m 59,270 -3,22 3,22 c 0,2 3,2 3,0 l 3,-22 -3,-22 c 0,-3 -3,-3 -3,0 z m 18,-14 c 0,-3 -3,-3 -3,0 l -5,36 4,35 c 0,3 4,3 4,0 l 4,-35 z m 59,-30 -3,66 2,40 c 0,8 7,8 7,0 l 4,-40 -4,-66 c 0,-5 -6,-5 -6,0 z m -31,22 -4,44 3,40 c 0,6 5,6 5,0 l 4,-40 -4,-44 c 0,-3 -4,-3 -4,0 z m 70,84 3,-40 -3,-88 c 0,-6 -7,-6 -7,0 l -3,88 2,40 c 0,8 8,8 8,0 z m 68,0 2,-40 -2,-102 c 0,-7 -10,-7 -10,0 l -2,102 2,40 c 0,8 10,8 10,0 z m -34,0 3,-40 -3,-89 c 0,-6 -9,-6 -9,0 l -2,89 2,40 c 0,8 9,8 9,0 z m -83,0 3,-40 -3,-41 c 0,-3 -6,-3 -6,0 l -3,41 3,40 c 0,7 6,7 6,0 z m -33,0 4,-40 -4,-43 c 0,-3 -4,-3 -4,0 l -4,43 4,40 c 0,4 4,4 4,0 z m 124,-125 -2,85 1,40 c 0,8 10,8 10,0 l 2,-40 -2,-85 c 0,-7 -9,-7 -9,0 z m -58,125 3,-40 -3,-81 c 0,-6 -7,-6 -7,0 l -3,81 2,40 c 0,8 8,8 8,0 z m 33,0 3,-40 -3,-91 c 0,-6 -8,-6 -8,0 l -3,91 3,40 c 0,8 8,8 8,0 z m 196,-89 c -5,-57 -64,-94 -118,-73 -4,2 -5,3 -5,6 v 156 c 0,3 2,6 5,6 h 137 c 27,0 49,-22 49,-49 0,-37 -35,-57 -68,-46 z m -138,-62 -3,111 3,40 c 0,8 10,8 10,0 l 3,-40 -3,-111 c 0,-7 -10,-7 -10,0 z"
     fill="#ffffff"
     id="path1" />
</svg>
